ply
format ascii 1.0
element vertex 25
property float x
property float y
property float z
property uchar red
property uchar green
property uchar blue
end_header
 0.0854148 -0.0457013   0.193713 0 255 0
-0.165723 -0.047656  0.161876 0 255 0
 0.673409 0.0655565  0.233028 0 255 0
 0.758419 -0.261514  0.190242 0 255 0
0.812892 -1.14388   1.6935 0 255 0
 0.344014 -0.140367  0.128838 0 255 0
-0.455673 -0.150643  0.670474 0 255 0
  1.02017 -0.623877  0.512665 0 255 0
-0.524501 -0.474542  0.938846 0 255 0
-0.585175 -0.224407  0.792442 0 255 0
  1.09651 -0.400209  0.142567 0 255 0
 0.522337 -0.181826  0.182566 0 255 0
-0.313312 -0.713251   1.24881 0 255 0
0.176309 -1.37898  1.57489 0 255 0
  1.14855 -0.287362 0.0861109 0 255 0
  1.08194 -0.445244   0.23053 0 255 0
  1.00316 -0.313735  0.099371 0 255 0
-0.458957 -0.713673   1.03777 0 255 0
-0.00500532    -1.09337     1.32244 0 255 0
 -0.252728 -0.0661997   0.669708 0 255 0
0.0321238  0.177287  0.671397 0 255 0
0.558632 0.154598 0.591856 0 255 0
0.203653 -1.32324  1.66732 0 255 0
-0.171899  -1.00761   1.33472 0 255 0
  -0.11632 -0.0580432   0.157306 0 255 0
